<?xml version="1.0" encoding="UTF-8" standalone="no"?><!DOCTYPE svg PUBLIC "-//W3C//DTD SVG 1.1//EN" "http://www.w3.org/Graphics/SVG/1.1/DTD/svg11.dtd"><svg width="100%" height="100%" viewBox="0 0 123 164" version="1.1" xmlns="http://www.w3.org/2000/svg" xmlns:xlink="http://www.w3.org/1999/xlink" xml:space="preserve" style="fill-rule:evenodd;clip-rule:evenodd;stroke-linejoin:round;stroke-miterlimit:1.41421;"><g><text x="17.572px" y="155.977px" style="font-family:'GDSTransport-Bold', 'GDS Transport';font-weight:700;font-size:19.165px;">Challenge</text><g><path d="M52.157,0.463c-9.158,1.293 -19.486,5.654 -27.352,11.55c-13.483,10.106 -21.579,24.229 -24.18,42.179c-1.157,7.989 -0.727,14.959 1.454,23.507c1.838,7.204 10.951,23.856 13.14,24.01c0.586,0.041 10.135,-15.219 10.135,-16.196c0,-0.578 -3.344,-5.128 -5.386,-7.326c-0.092,-0.1 -2.154,0.552 -4.535,1.435c-2.381,0.882 -4.476,1.506 -4.609,1.374c-0.289,-0.289 14.826,-25.277 16.1,-26.62c0.798,-0.841 0.926,-0.672 7.836,10.318c1.765,2.808 2.267,2.935 3.387,0.854c0.741,-1.375 0.636,-1.8 -1.07,-4.304c-1.038,-1.523 -2.883,-4.487 -4.086,-6.563c-3.892,-6.716 -6.638,-7.053 -9.938,-1.221c-0.954,1.684 -2.768,4.64 -4.048,6.594c-1.28,1.954 -2.43,3.828 -2.564,4.182c-0.134,0.349 -1.47,2.534 -2.931,4.793c-1.462,2.259 -3.354,5.279 -4.152,6.624c-0.868,1.465 -1.689,2.249 -2.015,1.923c-0.941,-0.941 -2.503,-11.112 -2.503,-16.301c0,-15.386 6.943,-31.08 18.377,-41.545c4.814,-4.404 11.723,-8.832 16.607,-10.641c1.771,-0.656 3.459,-1.378 3.816,-1.634c0.346,-0.247 1.526,-0.626 2.564,-0.824c1.061,-0.202 3.511,-0.7 5.465,-1.113c4.335,-0.912 20.447,-0.45 23.689,0.681c11.845,4.133 18.004,7.448 23.994,12.91c11.427,10.42 17.997,24.094 18.764,39.052c0.367,7.143 -0.512,16.366 -1.668,17.523c-0.267,0.266 -1.724,-1.496 -3.206,-3.878c-1.482,-2.38 -3.896,-6.266 -5.312,-8.547c-1.439,-2.319 -4.416,-7.174 -6.685,-10.898c-2.268,-3.725 -4.439,-7.151 -4.872,-7.693c-1.319,-1.648 -3.14,-2.035 -4.714,-1.002c-1.465,0.963 -7.937,11.089 -7.937,12.419c0,0.427 -0.228,0.733 -0.549,0.733c-0.298,0 -1.08,0.977 -1.71,2.137c-0.927,1.709 -1.008,2.417 -0.404,3.541c1.314,2.439 1.62,2.137 6.307,-6.228c0.873,-1.56 2.652,-4.304 3.897,-6.014l2.289,-3.143l1.16,1.495c0.616,0.794 1.16,1.711 1.16,1.953c0,0.256 1.095,2.107 2.473,4.183c1.378,2.076 3.148,4.9 3.999,6.38c0.843,1.467 3.317,5.526 5.527,9.066c4.914,7.877 5.315,8.792 3.631,8.297c-0.666,-0.196 -3.663,-1.108 -6.594,-2.008l-5.372,-1.648l-3.45,2.93c-1.893,1.608 -3.438,3.124 -3.424,3.358c0.075,1.222 13.355,21.553 14.078,21.553c1.319,0 7.364,-8.304 9.956,-13.676c3.712,-7.693 5.428,-13.747 6.039,-21.308c2.356,-29.124 -13.408,-54.168 -40.661,-64.6c-6.675,-2.556 -21.308,-3.839 -29.917,-2.623Z" style="fill-rule:nonzero;"/><path d="M59.362,26.016c0,9.83 -0.059,10.296 -1.527,12.028c-0.838,0.989 -6.231,9.463 -11.967,18.804c-5.735,9.341 -11.375,18.448 -12.515,20.209c-1.134,1.751 -3.78,6.045 -5.831,9.464c-2.052,3.419 -5.292,8.792 -7.143,11.844l-3.389,5.587l3.389,3.174c1.843,1.728 5.281,4.392 7.539,5.844c3.64,2.34 5.679,3.387 11.845,6.083c7.501,3.279 23.568,4.758 32.359,2.981c7.998,-1.618 11.548,-2.803 17.645,-5.89c7.143,-3.618 15.244,-10.061 14.637,-11.643c-0.703,-1.831 -40.031,-65.219 -41.366,-66.671c-1.013,-1.103 -1.196,-2.076 -1.02,-5.434l0.213,-4.091l7.357,-0.152c4.03,-0.084 7.758,-0.305 8.243,-0.489c0.563,-0.214 -0.367,-1.211 -2.564,-2.747c-1.893,-1.324 -3.45,-2.674 -3.45,-2.992c0,-0.319 1.496,-1.582 3.327,-2.808c1.832,-1.227 3.19,-2.476 3.022,-2.778c-0.167,-0.301 -4.487,-0.55 -9.554,-0.55l-9.25,0l0,10.227Zm13.126,34.16c6.336,10.257 12.228,19.839 13.066,21.247l1.526,2.564l-1.526,-0.366c-0.84,-0.202 -5.068,-1.451 -9.403,-2.778l-7.875,-2.412l-5.16,5.037l-5.158,5.037l-2.351,-2.839c-1.314,-1.587 -3.373,-3.956 -4.671,-5.373l-2.32,-2.534l-6.655,2.656c-3.663,1.462 -6.778,2.533 -6.929,2.381c-0.152,-0.152 1.452,-3.083 3.594,-6.563c16.6,-26.986 21.517,-34.793 21.896,-34.768c0.235,0.016 5.631,8.453 11.966,18.711Z" style="fill-rule:nonzero;"/></g></g></svg>