<?xml version="1.0" encoding="UTF-8" standalone="no"?><!DOCTYPE svg PUBLIC "-//W3C//DTD SVG 1.1//EN" "http://www.w3.org/Graphics/SVG/1.1/DTD/svg11.dtd"><svg width="100%" height="100%" viewBox="0 0 116 170" version="1.1" xmlns="http://www.w3.org/2000/svg" xmlns:xlink="http://www.w3.org/1999/xlink" xml:space="preserve" style="fill-rule:evenodd;clip-rule:evenodd;stroke-linejoin:round;stroke-miterlimit:1.41421;"><g id="collaborate"><g><path d="M53.546,0.542c-5.368,2 -8.855,7.988 -7.777,13.357c2.374,11.828 17.531,14.062 22.762,3.355c2.848,-5.83 0.738,-12.48 -5.043,-15.893c-2.368,-1.397 -7.299,-1.804 -9.942,-0.819Zm7.551,4.965c3.565,1.69 5.021,6.881 2.894,10.321c-3.862,6.249 -13.507,3.523 -13.507,-3.817c0,-5.453 5.596,-8.882 10.613,-6.504Z" style="fill-rule:nonzero;"/><path d="M37.439,13.54c-5.914,2.332 -11.745,5.861 -15.981,9.671l-1.677,1.509l1.635,1.678l1.636,1.678l2.014,-1.667c4.44,-3.677 10.528,-7.212 15.687,-9.108c1.217,-0.447 2.237,-0.841 2.307,-0.889c0.179,-0.124 -0.86,-3.856 -1.178,-4.233c-0.136,-0.162 -2.136,0.451 -4.443,1.361Z" style="fill-rule:nonzero;"/><path d="M73.343,12.388c-0.941,3.021 -1.177,3.925 -1.047,4.006c0.094,0.059 1.132,0.46 2.349,0.907c5.159,1.896 11.247,5.431 15.688,9.108l2.013,1.667l1.615,-1.657l1.615,-1.656l-1.426,-1.363c-3.942,-3.764 -11.787,-8.381 -18.079,-10.639c-1.929,-0.692 -2.6,-0.784 -2.728,-0.373Z" style="fill-rule:nonzero;"/><path d="M7.784,26.989c-2.369,0.84 -4.682,2.807 -6.21,5.281c-1.641,2.657 -2.055,6.964 -0.976,10.151c2.068,6.11 8.612,9.387 15.03,7.527c4.741,-1.375 8.599,-6.52 8.599,-11.47c0,-4.404 -3.093,-9.128 -7.257,-11.083c-2.557,-1.201 -6.46,-1.373 -9.186,-0.406Zm8.096,5.201c1.877,1.265 3.49,4.065 3.5,6.079c0.013,2.349 -1.68,5.299 -3.71,6.465c-2.181,1.253 -5.806,1.167 -7.634,-0.181c-3.139,-2.313 -4.143,-6.494 -2.365,-9.85c1.755,-3.313 7.076,-4.623 10.209,-2.513Z" style="fill-rule:nonzero;"/><path d="M98.428,27.358c-4.186,2.012 -7.256,6.716 -7.256,11.12c0,4.95 3.857,10.094 8.598,11.467c6.334,1.835 12.869,-1.358 14.97,-7.314c1.982,-5.621 -0.274,-11.807 -5.406,-14.822c-2.924,-1.719 -7.844,-1.922 -10.906,-0.451Zm8.767,4.82c4.446,2.55 4.535,9.144 0.167,12.37c-1.828,1.351 -5.452,1.439 -7.634,0.186c-2.029,-1.166 -3.722,-4.116 -3.71,-6.465c0.01,-2.014 1.623,-4.819 3.5,-6.089c1.993,-1.349 5.327,-1.35 7.677,-0.002Z" style="fill-rule:nonzero;"/><path d="M55.057,32.732l0,5.495l5.285,0l0,-5.495l0,-5.495l-2.643,0l-2.642,0l0,5.495Z" style="fill-rule:nonzero;"/><path d="M52.54,41.992c-5.621,1.224 -11.134,5.046 -14.415,9.993c-4.534,6.838 -4.945,16.4 -1.027,23.867c1.805,3.439 5.962,7.6 9.401,9.41c9.312,4.899 20.403,3.283 27.727,-4.041c11.044,-11.044 8.221,-29.783 -5.579,-37.032c-5.079,-2.669 -10.529,-3.412 -16.107,-2.197Zm9.396,9.271c6.156,4.691 1.845,14.206 -5.789,12.775c-3.733,-0.699 -6.45,-5.132 -5.435,-8.865c0.525,-1.93 3.273,-4.843 4.89,-5.185c2.013,-0.425 4.852,0.146 6.334,1.275Zm3.733,16.158c2.658,1.357 3.942,3.859 3.942,7.676l0,2.768l-11.891,0l-11.891,0l0,-2.768c0,-3.817 1.271,-6.316 3.901,-7.669c1.75,-0.9 2.642,-1.014 7.969,-1.014c5.327,0 6.219,0.113 7.97,1.007Z" style="fill-rule:nonzero;"/><path d="M25.003,45.945l-1.196,1.971l0.965,0.6c2.768,1.721 8.851,5.17 8.93,5.063c1.019,-1.384 2.058,-3.97 1.724,-4.293c-0.419,-0.405 -8.827,-5.312 -9.102,-5.312c-0.07,0 -0.66,0.88 -1.321,1.971Z" style="fill-rule:nonzero;"/><path d="M84.565,46.448c-2.307,1.345 -4.361,2.614 -4.593,2.838c-0.333,0.323 0.705,2.909 1.725,4.293c0.078,0.107 6.161,-3.342 8.929,-5.063l0.965,-0.6l-1.196,-1.971c-0.661,-1.091 -1.298,-1.962 -1.426,-1.951c-0.127,0.012 -2.097,1.109 -4.404,2.454Z" style="fill-rule:nonzero;"/><path d="M3.483,54.292c-0.89,3.84 -1.028,14.471 -0.245,18.917c0.377,2.14 0.772,3.986 0.876,4.09c0.103,0.103 1.132,-0.049 2.265,-0.336c2.055,-0.519 2.074,-0.54 1.819,-2.118c-0.637,-3.943 -0.82,-13.955 -0.317,-17.365c0.291,-1.972 0.532,-3.807 0.532,-4.048c0,-0.243 -0.986,-0.656 -2.202,-0.923l-2.202,-0.482l-0.526,2.265Z" style="fill-rule:nonzero;"/><path d="M109.019,52.509c-1.216,0.267 -2.173,0.633 -2.137,0.818c1.101,5.633 1.25,15.73 0.318,21.518c-0.255,1.578 -0.236,1.599 1.819,2.118c1.133,0.287 2.172,0.429 2.286,0.315c0.604,-0.604 1.426,-7.886 1.426,-12.626c0,-4.53 -0.836,-12.101 -1.384,-12.527c-0.07,-0.054 -1.111,0.118 -2.328,0.384Z" style="fill-rule:nonzero;"/><path d="M28.526,78.83l-4.719,2.685l1.07,1.824c0.59,1.007 1.258,1.881 1.489,1.951c0.231,0.069 2.496,-1.077 5.054,-2.559l4.635,-2.685l-1.174,-1.971c-0.65,-1.091 -1.278,-1.962 -1.405,-1.95c-0.128,0.011 -2.349,1.225 -4.95,2.705Z" style="fill-rule:nonzero;"/><path d="M80.517,78.075l-1.174,1.971l4.635,2.685c2.558,1.482 4.823,2.628 5.054,2.559c0.229,-0.069 0.916,-0.965 1.51,-1.972l1.091,-1.846l-4.782,-2.684c-2.643,-1.483 -4.866,-2.684 -4.97,-2.684c-0.105,0 -0.714,0.88 -1.364,1.971Z" style="fill-rule:nonzero;"/><path d="M9.839,79.226c-5.746,1.124 -9.796,5.903 -9.828,11.601c-0.022,3.984 0.753,5.915 3.504,8.724c1.954,1.996 2.927,2.621 5.024,3.232c4.027,1.172 8.259,0.211 11.619,-2.637c3.883,-3.292 5.008,-9.53 2.602,-14.437c-2.375,-4.848 -7.677,-7.508 -12.921,-6.483Zm5.579,5.505c5.159,2.656 5.184,10.124 0.042,12.84c-2.423,1.28 -4.152,1.285 -6.669,0.02c-2.742,-1.378 -3.943,-3.325 -3.943,-6.387c0,-5.747 5.471,-9.097 10.57,-6.473Z" style="fill-rule:nonzero;"/><path d="M100.987,79.242c-2.517,0.491 -4.26,1.457 -6.292,3.489c-5.809,5.809 -3.901,16.05 3.607,19.361c3.062,1.35 5.554,1.549 8.557,0.684c2.097,-0.605 3.07,-1.229 5.024,-3.225c2.751,-2.809 3.53,-4.74 3.522,-8.724c-0.016,-7.341 -7.078,-13.015 -14.418,-11.585Zm6.333,5.765c3.23,1.95 4.329,6.932 2.227,10.098c-1.143,1.722 -4.324,3.481 -6.295,3.481c-2.265,0 -5.1,-1.792 -6.237,-3.943c-3.547,-6.711 3.788,-13.569 10.305,-9.636Z" style="fill-rule:nonzero;"/><path d="M55.245,91.644c-0.127,0.335 -0.174,2.874 -0.105,5.642l0.126,5.033l4.866,0l0,-5.494l0,-5.495l-2.328,-0.147c-1.636,-0.103 -2.396,0.034 -2.559,0.461Z" style="fill-rule:nonzero;"/><path d="M21.249,103.368l-1.385,1.72l3.272,2.601c4.195,3.334 9.296,6.371 13.464,8.015c5.16,2.035 5.205,2.041 5.677,0.793c1.129,-2.993 0.951,-3.289 -2.908,-4.841c-4.782,-1.923 -9.748,-4.813 -13.171,-7.666c-1.552,-1.293 -2.979,-2.342 -3.188,-2.342c-0.212,0 -0.985,0.755 -1.761,1.72Z" style="fill-rule:nonzero;"/><path d="M89.116,104.031c-3.267,2.754 -8.263,5.66 -13.087,7.614c-3.859,1.562 -4.037,1.859 -2.907,4.852c0.47,1.248 0.516,1.242 5.676,-0.793c4.168,-1.644 9.269,-4.681 13.464,-8.015l3.272,-2.601l-1.384,-1.72c-0.777,-0.965 -1.587,-1.701 -1.846,-1.678c-0.256,0.023 -1.678,1.068 -3.188,2.341Z" style="fill-rule:nonzero;"/><path d="M54.931,105.643c-3.566,0.892 -6.818,3.626 -8.372,7.037c-1.222,2.68 -1.221,7.005 0.001,9.731c3.478,7.76 13.71,9.677 19.696,3.692c3.334,-3.335 4.454,-8.641 2.753,-13.045c-0.883,-2.287 -4.305,-5.789 -6.612,-6.766c-2.014,-0.853 -5.453,-1.152 -7.466,-0.649Zm6.333,5.512c1.6,0.822 2.936,2.574 3.564,4.671c1.038,3.464 -1.466,7.616 -5.284,8.761c-5.117,1.534 -10.476,-3.761 -8.95,-8.845c1.396,-4.656 6.373,-6.795 10.67,-4.587Z" style="fill-rule:nonzero;"/></g><text x="7.272px" y="161.412px" style="font-family:'GDSTransport-Bold', 'GDS Transport';font-weight:700;font-size:19.165px;">Collabora<tspan x="91.624px 99.578px " y="161.412px 161.412px ">te</tspan></text></g></svg>