<?xml version="1.0" encoding="UTF-8" standalone="no"?><!DOCTYPE svg PUBLIC "-//W3C//DTD SVG 1.1//EN" "http://www.w3.org/Graphics/SVG/1.1/DTD/svg11.dtd"><svg width="100%" height="100%" viewBox="0 0 119 164" version="1.1" xmlns="http://www.w3.org/2000/svg" xmlns:xlink="http://www.w3.org/1999/xlink" xml:space="preserve" style="fill-rule:evenodd;clip-rule:evenodd;stroke-linejoin:round;stroke-miterlimit:1.41421;"><g><text x="5.627px" y="155.331px" style="font-family:'GDSTransport-Bold', 'GDS Transport';font-weight:700;font-size:19.165px;">Compassion</text><g><path d="M37.514,0.153c-6.932,0.774 -12.378,4.88 -15.668,11.812c-1.766,3.719 -1.889,4.404 -1.889,10.54c0,5.966 0.152,6.873 1.677,9.972c2.553,5.194 6.619,9.197 16.619,16.366c4.943,3.544 11.531,8.83 14.546,11.675c3.012,2.841 5.77,5.212 6.08,5.227c0.311,0.016 3.238,-2.411 6.477,-5.369c3.241,-2.96 9.887,-8.247 14.717,-11.705c9.773,-6.999 13.853,-11.03 16.392,-16.194c1.524,-3.099 1.676,-4.006 1.676,-9.972c0,-6.136 -0.121,-6.821 -1.875,-10.54c-1.044,-2.216 -2.907,-5.009 -4.204,-6.307c-5.818,-5.818 -15.171,-7.327 -22.728,-3.667c-3.352,1.624 -8.197,6.44 -9.177,9.122c-0.414,1.137 -0.924,2.102 -1.107,2.102c-0.185,0 -0.694,-0.965 -1.109,-2.102c-0.421,-1.154 -2.074,-3.409 -3.664,-5c-4.78,-4.78 -10.171,-6.697 -16.763,-5.96Z" style="fill-rule:nonzero;"/><path d="M2.911,19.518c-0.868,0.467 -1.888,1.709 -2.245,2.732c-0.813,2.329 -0.918,51.699 -0.114,53.808c0.296,0.778 5.655,6.037 11.848,11.629c12.727,11.49 13.239,12.239 13.239,19.395c0,2.387 0.191,4.598 0.426,4.944c1.115,1.638 3.381,2.045 11.393,2.045c11.854,0 11.137,0.965 11.137,-15.001l0,-12.727l-1.797,-3.069c-1.68,-2.869 -4.283,-5.398 -22.806,-22.167c-5.569,-5.041 -6.286,-5.504 -8.524,-5.504c-3.465,0 -5.475,2.115 -5.234,5.511c0.17,2.4 0.575,2.866 10.064,11.583c9.489,8.717 11.279,10.987 9.262,11.747c-0.666,0.251 -4.063,-2.441 -10.938,-8.67c-5.511,-4.993 -10.437,-9.72 -11.011,-10.569c-1.286,-1.897 -1.373,-6.022 -0.177,-8.352c1.109,-2.159 3.432,-4.036 5.591,-4.518l1.648,-0.368l-1.847,-15.256c-1.802,-14.888 -1.887,-15.291 -3.494,-16.675c-1.849,-1.592 -4.091,-1.773 -6.421,-0.518Z" style="fill-rule:nonzero;"/><path d="M108.767,20.037c-1.608,1.382 -1.693,1.786 -3.494,16.56l-1.847,15.142l2.102,0.76c5.341,1.931 7.674,7.719 5.006,12.422c-1.546,2.728 -20.828,19.978 -21.881,19.577c-2.292,-0.873 -1.193,-2.307 8.92,-11.635c10.114,-9.327 10.399,-9.655 10.399,-11.976c0,-3.26 -2.046,-5.284 -5.342,-5.284c-2.238,0 -2.954,0.463 -8.523,5.511c-3.328,3.018 -9.46,8.571 -13.551,12.274c-4.717,4.267 -8.132,7.903 -9.262,9.858l-1.79,3.097l0,12.727c0,15.966 -0.717,15.001 11.137,15.001c8.012,0 10.277,-0.407 11.393,-2.045c0.237,-0.348 0.426,-2.444 0.426,-4.717c0,-7.547 0.113,-7.716 13.011,-19.391c6.364,-5.759 11.777,-11.076 12.076,-11.86c0.804,-2.109 0.708,-51.479 -0.105,-53.808c-1.228,-3.523 -5.798,-4.689 -8.675,-2.213Z" style="fill-rule:nonzero;"/></g></g></svg>