<?xml version="1.0" encoding="UTF-8" standalone="no"?><!DOCTYPE svg PUBLIC "-//W3C//DTD SVG 1.1//EN" "http://www.w3.org/Graphics/SVG/1.1/DTD/svg11.dtd"><svg width="100%" height="100%" viewBox="0 0 144 165" version="1.1" xmlns="http://www.w3.org/2000/svg" xmlns:xlink="http://www.w3.org/1999/xlink" xml:space="preserve" style="fill-rule:evenodd;clip-rule:evenodd;stroke-linejoin:round;stroke-miterlimit:1.41421;"><g id="resuse"><text x="0px" y="156.529px" style="font-family:'GDSTransport-Bold', 'GDS Transport';font-weight:700;font-size:19.165px;">R<tspan x="11.941px 22.515px " y="156.529px 156.529px ">eu</tspan>se &amp; improve</text><g><path d="M66.177,6.464l-6.399,6.464l13.898,13.898l0,-2.618l0,-2.618l2.457,0.4c3.778,0.612 11.7,4.661 15.967,8.157c4.921,4.033 10.257,12 12.236,18.27c2.163,6.852 2.172,17.195 0.02,24.048c-3.003,9.567 -10.801,18.722 -19.82,23.27c-7.884,3.975 -8.985,4.074 -45.379,4.074c-18.359,0 -33.356,0.247 -33.356,0.549c0,0.304 1.519,2.04 3.394,3.879l3.394,3.329l-3.911,3.976l-3.911,3.975l35.295,-0.259l35.295,-0.258l5.947,-1.842c10.343,-3.201 18.019,-7.861 24.974,-15.159c9.912,-10.402 14.847,-22.884 14.847,-37.558c0,-25.599 -16.411,-46.589 -41.501,-53.084l-5.948,-1.539l0,-2.91c0,-1.616 -0.244,-2.908 -0.549,-2.908c-0.302,0 -3.429,2.908 -6.95,6.464Z" style="fill-rule:nonzero;"/><path d="M52.602,7.52c-10.601,2.737 -21.621,9.892 -28.737,18.66c-3.926,4.838 -8.846,14.545 -10.484,20.686c-1.637,6.141 -1.617,21.067 0.037,27.15c1.389,5.107 4.381,11.774 7.37,16.42l2.079,3.232l10.472,0c6.529,0 10.472,-0.256 10.472,-0.679c0,-0.388 -0.277,-0.679 -0.646,-0.679c-0.358,0 -2.506,-1.874 -4.814,-4.202c-6.748,-6.803 -11.541,-18.294 -11.541,-27.667c0,-4.762 1.816,-12.088 4.278,-17.259c5.04,-10.588 14.857,-18.433 26.88,-21.484l2.974,-0.754l-3.814,-3.846l-3.814,-3.846l3.527,-3.556c4.064,-4.098 3.778,-4.245 -4.239,-2.176Z" style="fill-rule:nonzero;"/><path d="M125.349,95.974l0,2.876l-6.626,0l-6.626,0l-3.717,3.782c-2.028,2.063 -6.302,5.53 -9.406,7.628l-5.688,3.846l15.999,0.194l15.999,0.194l0.389,5.43l6.625,-6.658l6.626,-6.658l-6.788,-6.756l-6.787,-6.755l0,2.877Z" style="fill-rule:nonzero;"/></g></g></svg>