<?xml version="1.0" encoding="UTF-8" standalone="no"?><!DOCTYPE svg PUBLIC "-//W3C//DTD SVG 1.1//EN" "http://www.w3.org/Graphics/SVG/1.1/DTD/svg11.dtd"><svg width="100%" height="100%" viewBox="0 0 156 164" version="1.1" xmlns="http://www.w3.org/2000/svg" xmlns:xlink="http://www.w3.org/1999/xlink" xml:space="preserve" style="fill-rule:evenodd;clip-rule:evenodd;stroke-linejoin:round;stroke-miterlimit:1.41421;"><g><text x="53.069px" y="155.56px" style="font-family:'GDSTransport-Bold', 'GDS Transport';font-weight:700;font-size:19.165px;">T<tspan x="62.82px 70.063px " y="155.56px 155.56px ">ru</tspan>st</text><g><path d="M154.259,31.665l-30.761,-30.459c-1.617,-1.608 -4.264,-1.608 -5.891,0l-7.395,7.33c-1.636,1.613 -1.636,4.228 -0.014,5.839l30.77,30.45c1.626,1.615 4.265,1.615 5.901,0l7.39,-7.324c1.636,-1.611 1.636,-4.224 0,-5.836" style="fill-rule:nonzero;"/><path d="M103.557,19.979l-30.529,-8.899c-8.125,-3.48 -17.574,0.216 -21.089,8.265l-11.742,26.776c-0.449,0.991 -0.731,2.074 -0.803,3.222c-0.315,5.057 3.555,9.409 8.665,9.727c3.84,0.237 7.273,-1.876 8.886,-5.096l4.825,-11.091c1.491,-3.463 5.11,-6.357 9.126,-6.111c1.884,0.121 3.605,0.78 5.006,1.824l35.299,34.956l0.019,-0.013l4.318,4.279c1.057,1.043 1.635,2.434 1.635,3.909c0,1.472 -0.577,2.854 -1.635,3.896c-1.053,1.042 -2.444,1.619 -3.93,1.619c-1.492,0 -2.901,-0.573 -3.953,-1.615l-15.468,-15.309c-0.797,-0.787 -2.093,-0.787 -2.888,0c-0.393,0.394 -0.596,0.913 -0.596,1.432c0,0.514 0.203,1.038 0.596,1.431l15.469,15.305c1.053,1.042 1.631,2.432 1.631,3.909c0,1.471 -0.578,2.857 -1.631,3.899c-2.178,2.157 -5.715,2.157 -7.888,0c0,0 -13.589,-13.453 -15.297,-15.129c-0.113,-0.116 -0.171,-0.175 -0.171,-0.175c-0.795,-0.791 -2.087,-0.791 -2.888,0c-0.804,0.792 -0.795,2.072 0,2.863l15.461,15.304c1.053,1.042 1.631,2.434 1.631,3.905c0,1.476 -0.578,2.858 -1.631,3.904c-2.173,2.152 -5.706,2.152 -7.888,0c0,0 -13.59,-13.456 -15.289,-15.138c-0.113,-0.112 -0.178,-0.171 -0.178,-0.171c-0.795,-0.792 -2.092,-0.792 -2.887,0c-0.394,0.394 -0.597,0.913 -0.597,1.432c0,0.519 0.203,1.033 0.597,1.431l15.466,15.309c1.053,1.038 1.632,2.424 1.632,3.9c0,1.472 -0.579,2.858 -1.632,3.909c-1.056,1.038 -2.457,1.615 -3.943,1.615c-1.487,0 -2.89,-0.572 -3.943,-1.615l-6.532,-6.467c2.097,-2.947 1.834,-7.035 -0.823,-9.665c-2.792,-2.764 -7.273,-3.001 -10.285,-0.613c2.433,-2.961 2.284,-7.303 -0.499,-10.062c-2.647,-2.621 -6.743,-2.894 -9.714,-0.859l-0.191,-0.196c2.053,-2.94 1.768,-6.996 -0.87,-9.613c-2.648,-2.615 -6.743,-2.893 -9.713,-0.863l-0.201,-0.191c2.063,-2.943 1.778,-7.004 -0.87,-9.62c-2.647,-2.617 -6.742,-2.894 -9.713,-0.859l-22.425,-22.206c-0.795,-0.794 -2.092,-0.794 -2.887,0c-0.8,0.787 -0.8,2.072 0,2.859l22.331,22.109l-2.585,2.558l-4.506,4.459c-2.977,2.947 -2.977,7.729 0,10.672c2.977,2.947 7.798,2.947 10.773,0l0,0.005c-2.975,2.946 -2.975,7.719 0,10.666c2.977,2.947 7.806,2.947 10.783,0c-2.977,2.947 -2.977,7.724 0,10.672c2.784,2.755 7.17,2.898 10.165,0.492c-2.415,2.978 -2.173,7.415 0.61,10.173c2.978,2.953 7.807,2.953 10.784,0l4.506,-4.458l2.537,-2.509l6.436,6.373c1.825,1.807 4.248,2.804 6.831,2.804c2.584,-0.005 5.006,-0.997 6.831,-2.804c1.83,-1.807 2.832,-4.209 2.832,-6.767c0,-0.416 -0.072,-0.819 -0.122,-1.221c2.869,0.362 5.868,-0.501 8.065,-2.68c1.829,-1.806 2.832,-4.207 2.832,-6.766c0,-0.42 -0.064,-0.819 -0.118,-1.23c2.868,0.367 5.873,-0.501 8.069,-2.674c1.825,-1.808 2.832,-4.205 2.832,-6.762c0,-0.417 -0.072,-0.819 -0.123,-1.227c0.412,0.054 0.813,0.121 1.244,0.121c2.579,-0.004 5,-0.996 6.821,-2.803c1.825,-1.802 2.832,-4.205 2.832,-6.758c0,-2.558 -1.007,-4.961 -2.832,-6.767l-4.306,-4.271l20.633,-20.244l-31.198,-30.467Z" style="fill-rule:nonzero;"/></g></g></svg>